<svg width="40" height="40" viewBox="0 0 40 40" fill="none" xmlns="http://www.w3.org/2000/svg">
<circle cx="20" cy="20" r="20" fill="#FFF4DF"/>
<path d="M19.9995 22.5C17.3578 22.5 15.0085 23.7755 13.5129 25.755C13.191 26.181 13.03 26.394 13.0353 26.6819C13.0393 26.9043 13.179 27.1849 13.354 27.3222C13.5805 27.5 13.8944 27.5 14.5222 27.5H25.4769C26.1047 27.5 26.4186 27.5 26.6451 27.3222C26.8201 27.1849 26.9598 26.9043 26.9638 26.6819C26.9691 26.394 26.8081 26.181 26.4862 25.755C24.9906 23.7755 22.6413 22.5 19.9995 22.5Z" fill="#F6B83D" stroke="#F6B83D" stroke-width="2" stroke-linecap="round" stroke-linejoin="round"/>
<path d="M20 20C22.0711 20 23.75 18.3211 23.75 16.25C23.75 14.1789 22.0711 12.5 20 12.5C17.9289 12.5 16.25 14.1789 16.25 16.25C16.25 18.3211 17.9289 20 20 20Z" fill="#F6B83D" stroke="#F6B83D" stroke-width="2" stroke-linecap="round" stroke-linejoin="round"/>
</svg>
